<svg xmlns="http://www.w3.org/2000/svg" viewBox="0 0 17.49 20"><circle cx="13.18" cy="13.5" r="0.82"/><path d="M18,14.14a.78.78,0,0,0,.78-.78h0V10.47a3.13,3.13,0,0,0-3.13-3.12h-.94V4.59a4.69,4.69,0,0,0-9.37,0V7.35H4.38a3.13,3.13,0,0,0-3.13,3.12v6.41A3.13,3.13,0,0,0,4.38,20H15.62a3.13,3.13,0,0,0,3.13-3.12.79.79,0,0,0-1.57,0,1.56,1.56,0,0,1-1.56,1.56H4.38a1.56,1.56,0,0,1-1.56-1.56V10.47A1.56,1.56,0,0,1,4.38,8.91H15.62a1.56,1.56,0,0,1,1.56,1.57v2.89A.79.79,0,0,0,18,14.14ZM13.12,7.35H6.87V4.59a3.13,3.13,0,0,1,6.25,0Z" transform="translate(-1.25)"/><circle cx="7.31" cy="13.5" r="0.82"/><circle cx="4.39" cy="13.5" r="0.82"/><circle cx="10.22" cy="13.5" r="0.82"/></svg>