<svg xmlns="http://www.w3.org/2000/svg" viewBox="0 0 20 20"><path d="M18.57,14.22l0,0a12.49,12.49,0,0,0-3.12-1.87,17.16,17.16,0,0,1-2.22-1.23,8.51,8.51,0,0,0,2-5,8.2,8.2,0,0,0-.62-3.69C14,1.33,12.78,0,10,0S6,1.33,5.41,2.45a8,8,0,0,0-.62,3.68,8.51,8.51,0,0,0,2,5,15.52,15.52,0,0,1-2.22,1.22,13,13,0,0,0-3.14,1.9,6.26,6.26,0,0,0-1.43,4A1.79,1.79,0,0,0,1.79,20H18.21A1.79,1.79,0,0,0,20,18.19,6.24,6.24,0,0,0,18.57,14.22ZM8,12.13l.93-.87-.82-1A7,7,0,0,1,6.31,6.11a6.58,6.58,0,0,1,.46-3C7.3,2.06,8.39,1.52,10,1.52a3.29,3.29,0,0,1,3.23,1.59,6.69,6.69,0,0,1,.46,3,7.05,7.05,0,0,1-1.76,4.15l-.81,1,1,.89a13.13,13.13,0,0,0,2.7,1.55,12.6,12.6,0,0,1,2.71,1.59,4.7,4.7,0,0,1,1,2.93.27.27,0,0,1-.27.27H1.79a.27.27,0,0,1-.27-.27,4.81,4.81,0,0,1,1-2.92,12.45,12.45,0,0,1,2.73-1.6A13.59,13.59,0,0,0,8,12.13Z" transform="translate(0 0)"/></svg>